<?xml version="1.0" encoding="UTF-8"?>
<svg xmlns="http://www.w3.org/2000/svg" xmlns:xlink="http://www.w3.org/1999/xlink" width="207pt" height="31pt" viewBox="0 0 207 31" version="1.1">
<g id="surface1">
<path style=" stroke:none;fill-rule:evenodd;fill:rgb(100%,20%,20%);fill-opacity:1;" d="M 72.929688 0 L 55.933594 0 C 52.082031 0 48.929688 3.171875 48.929688 7.046875 L 48.929688 7.347656 C 48.929688 11.222656 52.082031 14.394531 55.933594 14.394531 L 72.929688 14.394531 C 76.785156 14.394531 79.9375 11.222656 79.9375 7.347656 L 79.9375 7.046875 C 79.9375 3.171875 76.785156 0 72.929688 0 "/>
<path style=" stroke:none;fill-rule:evenodd;fill:rgb(100%,100%,100%);fill-opacity:1;" d="M 62.046875 9.226562 C 62.046875 9.980469 61.152344 10.515625 60.34375 9.980469 L 57.496094 7.113281 C 57.492188 7.875 57.492188 8.738281 57.492188 9.21875 C 57.492188 9.773438 57.039062 10.226562 56.488281 10.226562 C 55.933594 10.226562 55.480469 9.773438 55.480469 9.21875 L 55.480469 4.65625 C 55.480469 4.382812 55.589844 4.121094 55.785156 3.925781 C 55.980469 3.730469 56.230469 3.625 56.511719 3.625 C 56.792969 3.625 57.046875 3.734375 57.242188 3.925781 L 57.347656 4.035156 C 57.582031 4.273438 57.992188 4.679688 58.476562 5.171875 L 58.46875 5.179688 L 62.046875 8.773438 Z M 62.046875 9.226562 "/>
<path style=" stroke:none;fill-rule:evenodd;fill:rgb(100%,100%,100%);fill-opacity:1;" d="M 62.046875 8.007812 L 60.046875 5.996094 L 60.046875 4.621094 C 60.046875 4.070312 60.496094 3.625 61.042969 3.625 L 61.050781 3.625 C 61.597656 3.625 62.046875 4.074219 62.046875 4.625 Z M 62.046875 8.007812 "/>
<path style=" stroke:none;fill-rule:evenodd;fill:rgb(100%,100%,100%);fill-opacity:1;" d="M 73.367188 9.3125 C 73.367188 9.871094 72.917969 10.320312 72.367188 10.320312 C 71.8125 10.320312 71.363281 9.871094 71.363281 9.3125 C 71.363281 9.027344 71.363281 8.441406 71.363281 7.847656 L 73.367188 5.832031 Z M 73.367188 9.3125 "/>
<path style=" stroke:none;fill-rule:evenodd;fill:rgb(100%,100%,100%);fill-opacity:1;" d="M 73.375 4.746094 C 73.375 4.761719 73.371094 4.773438 73.367188 4.785156 L 73.367188 5.066406 L 71.363281 7.082031 L 71.363281 7.078125 C 70.414062 8.035156 69.464844 8.988281 68.515625 9.945312 C 68.296875 10.164062 68.015625 10.28125 67.734375 10.28125 C 67.648438 10.28125 67.558594 10.269531 67.472656 10.246094 C 67.121094 10.152344 66.84375 9.875 66.75 9.519531 C 66.652344 9.160156 66.765625 8.773438 67.046875 8.492188 C 68.589844 6.933594 70.136719 5.378906 71.683594 3.824219 C 71.832031 3.675781 72.011719 3.597656 72.199219 3.589844 L 72.253906 3.589844 C 72.558594 3.582031 72.847656 3.703125 73.058594 3.921875 C 73.226562 4.09375 73.332031 4.3125 73.363281 4.550781 L 73.367188 4.546875 L 73.367188 4.589844 C 73.375 4.632812 73.375 4.679688 73.375 4.722656 Z M 73.375 4.746094 "/>
<path style=" stroke:none;fill-rule:evenodd;fill:rgb(100%,20%,20%);fill-opacity:1;" d="M 72.863281 16.375 L 56 16.375 C 52.109375 16.375 48.929688 19.574219 48.929688 23.488281 L 48.929688 23.652344 C 48.929688 27.566406 52.109375 30.765625 56 30.765625 L 72.863281 30.765625 C 76.753906 30.765625 79.9375 27.566406 79.9375 23.652344 L 79.9375 23.488281 C 79.9375 19.574219 76.753906 16.375 72.863281 16.375 "/>
<path style=" stroke:none;fill-rule:evenodd;fill:rgb(100%,100%,100%);fill-opacity:1;" d="M 55.785156 21.445312 C 55.785156 20.886719 56.234375 20.433594 56.789062 20.433594 C 57.339844 20.433594 57.789062 20.886719 57.792969 21.441406 C 57.792969 21.730469 57.792969 22.316406 57.789062 22.90625 L 55.785156 24.925781 Z M 55.785156 21.445312 "/>
<path style=" stroke:none;fill-rule:evenodd;fill:rgb(100%,100%,100%);fill-opacity:1;" d="M 62.113281 22.265625 C 60.570312 23.820312 59.023438 25.378906 57.476562 26.929688 C 57.332031 27.078125 57.148438 27.160156 56.960938 27.167969 L 56.90625 27.167969 C 56.902344 27.167969 56.894531 27.167969 56.886719 27.167969 C 56.589844 27.167969 56.304688 27.046875 56.101562 26.835938 C 55.933594 26.664062 55.828125 26.441406 55.796875 26.207031 L 55.789062 26.210938 L 55.789062 26.167969 C 55.785156 26.125 55.785156 26.078125 55.785156 26.03125 L 55.785156 25.996094 C 55.785156 25.984375 55.789062 25.976562 55.789062 25.964844 L 55.789062 25.691406 L 57.796875 23.675781 C 58.746094 22.722656 59.695312 21.765625 60.644531 20.8125 C 61.082031 20.375 61.726562 20.359375 62.144531 20.777344 C 62.558594 21.191406 62.546875 21.832031 62.113281 22.265625 "/>
<path style=" stroke:none;fill-rule:evenodd;fill:rgb(100%,100%,100%);fill-opacity:1;" d="M 71.0625 26.234375 C 71.0625 26.796875 70.609375 27.253906 70.046875 27.253906 C 69.484375 27.253906 69.03125 26.796875 69.03125 26.234375 L 69.03125 21.675781 C 69.03125 21.113281 69.484375 20.652344 70.046875 20.652344 C 70.609375 20.652344 71.0625 21.113281 71.0625 21.675781 Z M 71.0625 26.234375 "/>
<path style=" stroke:none;fill-rule:evenodd;fill:rgb(100%,100%,100%);fill-opacity:1;" d="M 62.046875 9.226562 C 62.046875 9.980469 61.152344 10.515625 60.34375 9.980469 L 57.496094 7.113281 C 57.492188 7.875 57.492188 8.738281 57.492188 9.21875 C 57.492188 9.773438 57.039062 10.226562 56.488281 10.226562 C 55.933594 10.226562 55.480469 9.773438 55.480469 9.21875 L 55.480469 4.65625 C 55.480469 4.382812 55.589844 4.121094 55.785156 3.925781 C 55.980469 3.730469 56.230469 3.625 56.511719 3.625 C 56.792969 3.625 57.046875 3.734375 57.242188 3.925781 L 57.347656 4.035156 C 57.582031 4.273438 57.992188 4.679688 58.476562 5.171875 L 58.46875 5.179688 L 62.046875 8.773438 Z M 62.046875 9.226562 "/>
<path style=" stroke:none;fill-rule:evenodd;fill:rgb(100%,100%,100%);fill-opacity:1;" d="M 62.046875 8.007812 L 60.046875 5.996094 L 60.046875 4.621094 C 60.046875 4.070312 60.496094 3.625 61.042969 3.625 L 61.050781 3.625 C 61.597656 3.625 62.046875 4.074219 62.046875 4.625 Z M 62.046875 8.007812 "/>
<path style=" stroke:none;fill-rule:evenodd;fill:rgb(100%,100%,100%);fill-opacity:1;" d="M 73.367188 9.3125 C 73.367188 9.871094 72.917969 10.320312 72.367188 10.320312 C 71.8125 10.320312 71.363281 9.871094 71.363281 9.3125 C 71.363281 9.027344 71.363281 8.441406 71.363281 7.847656 L 73.367188 5.832031 Z M 73.367188 9.3125 "/>
<path style=" stroke:none;fill-rule:evenodd;fill:rgb(100%,100%,100%);fill-opacity:1;" d="M 73.375 4.746094 C 73.375 4.761719 73.371094 4.773438 73.367188 4.785156 L 73.367188 5.066406 L 71.363281 7.082031 L 71.363281 7.078125 C 70.414062 8.035156 69.464844 8.988281 68.515625 9.945312 C 68.296875 10.164062 68.015625 10.28125 67.734375 10.28125 C 67.648438 10.28125 67.558594 10.269531 67.472656 10.246094 C 67.121094 10.152344 66.84375 9.875 66.75 9.519531 C 66.652344 9.160156 66.765625 8.773438 67.046875 8.492188 C 68.589844 6.933594 70.136719 5.378906 71.683594 3.824219 C 71.832031 3.675781 72.011719 3.597656 72.199219 3.589844 L 72.253906 3.589844 C 72.558594 3.582031 72.847656 3.703125 73.058594 3.921875 C 73.226562 4.09375 73.332031 4.3125 73.363281 4.550781 L 73.367188 4.546875 L 73.367188 4.589844 C 73.375 4.632812 73.375 4.679688 73.375 4.722656 Z M 73.375 4.746094 "/>
<path style=" stroke:none;fill-rule:evenodd;fill:rgb(100%,100%,100%);fill-opacity:1;" d="M 55.785156 21.445312 C 55.785156 20.886719 56.234375 20.433594 56.789062 20.433594 C 57.339844 20.433594 57.789062 20.886719 57.792969 21.441406 C 57.792969 21.730469 57.792969 22.316406 57.789062 22.90625 L 55.785156 24.925781 Z M 55.785156 21.445312 "/>
<path style=" stroke:none;fill-rule:evenodd;fill:rgb(100%,100%,100%);fill-opacity:1;" d="M 62.113281 22.265625 C 60.570312 23.820312 59.023438 25.378906 57.476562 26.929688 C 57.332031 27.078125 57.148438 27.160156 56.960938 27.167969 L 56.90625 27.167969 C 56.902344 27.167969 56.894531 27.167969 56.886719 27.167969 C 56.589844 27.167969 56.304688 27.046875 56.101562 26.835938 C 55.933594 26.664062 55.828125 26.441406 55.796875 26.207031 L 55.789062 26.210938 L 55.789062 26.167969 C 55.785156 26.125 55.785156 26.078125 55.785156 26.03125 L 55.785156 25.996094 C 55.785156 25.984375 55.789062 25.976562 55.789062 25.964844 L 55.789062 25.691406 L 57.796875 23.675781 C 58.746094 22.722656 59.695312 21.765625 60.644531 20.8125 C 61.082031 20.375 61.726562 20.359375 62.144531 20.777344 C 62.558594 21.191406 62.546875 21.832031 62.113281 22.265625 "/>
<path style=" stroke:none;fill-rule:evenodd;fill:rgb(100%,100%,100%);fill-opacity:1;" d="M 71.0625 26.234375 C 71.0625 26.796875 70.609375 27.253906 70.046875 27.253906 C 69.484375 27.253906 69.03125 26.796875 69.03125 26.234375 L 69.03125 21.675781 C 69.03125 21.113281 69.484375 20.652344 70.046875 20.652344 C 70.609375 20.652344 71.0625 21.113281 71.0625 21.675781 Z M 71.0625 26.234375 "/>
<path style=" stroke:none;fill-rule:evenodd;fill:rgb(29.411765%,28.627451%,40.784314%);fill-opacity:1;" d="M 95.707031 7.519531 L 95.707031 13.074219 L 93.480469 13.074219 L 93.480469 7.625 C 93.480469 6.910156 93.34375 6.386719 93.070312 6.058594 C 92.796875 5.730469 92.375 5.5625 91.804688 5.5625 C 91.128906 5.5625 90.582031 5.78125 90.164062 6.21875 C 89.75 6.65625 89.539062 7.230469 89.539062 7.949219 L 89.539062 13.074219 L 87.332031 13.074219 L 87.332031 6.585938 C 87.332031 5.628906 87.28125 4.777344 87.1875 4.023438 L 89.273438 4.023438 L 89.433594 5.511719 C 89.742188 4.960938 90.160156 4.535156 90.691406 4.238281 C 91.21875 3.9375 91.816406 3.789062 92.480469 3.789062 C 94.632812 3.789062 95.707031 5.03125 95.707031 7.519531 "/>
<path style=" stroke:none;fill-rule:evenodd;fill:rgb(29.411765%,28.627451%,40.784314%);fill-opacity:1;" d="M 103.355469 10.691406 C 103.757812 10.175781 103.960938 9.453125 103.960938 8.523438 C 103.960938 7.566406 103.757812 6.832031 103.355469 6.316406 C 102.953125 5.804688 102.375 5.546875 101.625 5.546875 C 100.890625 5.546875 100.316406 5.8125 99.90625 6.34375 C 99.496094 6.875 99.292969 7.613281 99.292969 8.558594 C 99.292969 9.492188 99.496094 10.207031 99.90625 10.710938 C 100.316406 11.210938 100.894531 11.460938 101.644531 11.460938 C 102.382812 11.460938 102.953125 11.207031 103.355469 10.691406 Z M 106.152344 4.023438 L 106.152344 13.074219 L 103.960938 13.074219 L 103.960938 11.625 C 103.6875 12.125 103.296875 12.515625 102.785156 12.796875 C 102.273438 13.078125 101.691406 13.21875 101.039062 13.21875 C 100.253906 13.21875 99.558594 13.027344 98.953125 12.644531 C 98.347656 12.261719 97.875 11.71875 97.542969 11.015625 C 97.210938 10.308594 97.042969 9.492188 97.042969 8.558594 C 97.042969 7.625 97.214844 6.796875 97.550781 6.074219 C 97.890625 5.351562 98.363281 4.789062 98.96875 4.390625 C 99.574219 3.988281 100.265625 3.789062 101.039062 3.789062 C 101.691406 3.789062 102.273438 3.929688 102.785156 4.210938 C 103.296875 4.492188 103.6875 4.882812 103.960938 5.386719 L 103.960938 4.023438 Z M 106.152344 4.023438 "/>
<path style=" stroke:none;fill-rule:evenodd;fill:rgb(29.411765%,28.627451%,40.784314%);fill-opacity:1;" d="M 114.355469 4.039062 L 116.5625 4.039062 L 112.625 13.074219 L 110.683594 13.074219 L 106.796875 4.039062 L 109.132812 4.039062 L 111.714844 10.53125 Z M 114.355469 4.039062 "/>
<path style=" stroke:none;fill-rule:evenodd;fill:rgb(29.411765%,28.627451%,40.784314%);fill-opacity:1;" d="M 118.246094 0.394531 L 118.339844 0.394531 C 118.988281 0.394531 119.515625 0.925781 119.515625 1.578125 C 119.515625 2.234375 118.988281 2.765625 118.339844 2.765625 L 118.246094 2.765625 C 117.597656 2.765625 117.070312 2.234375 117.070312 1.578125 C 117.070312 0.925781 117.597656 0.394531 118.246094 0.394531 "/>
<path style=" stroke:none;fill-rule:evenodd;fill:rgb(29.411765%,28.627451%,40.784314%);fill-opacity:1;" d="M 117.1875 13.074219 L 119.398438 13.074219 L 119.398438 4.023438 L 117.1875 4.023438 Z M 117.1875 13.074219 "/>
<path style=" stroke:none;fill-rule:nonzero;fill:rgb(29.411765%,28.627451%,40.784314%);fill-opacity:1;" d="M 87.800781 21.660156 L 88.886719 21.660156 L 88.886719 30.757812 L 87.800781 30.757812 Z M 88.378906 19.445312 C 88.148438 19.445312 87.949219 19.367188 87.78125 19.207031 C 87.625 19.039062 87.546875 18.832031 87.546875 18.589844 C 87.546875 18.375 87.625 18.1875 87.78125 18.027344 C 87.949219 17.859375 88.148438 17.773438 88.378906 17.773438 C 88.609375 17.773438 88.800781 17.859375 88.957031 18.027344 C 89.125 18.1875 89.210938 18.375 89.210938 18.589844 C 89.210938 18.832031 89.125 19.039062 88.957031 19.207031 C 88.800781 19.367188 88.609375 19.445312 88.378906 19.445312 Z M 88.378906 19.445312 "/>
<path style=" stroke:none;fill-rule:nonzero;fill:rgb(29.411765%,28.627451%,40.784314%);fill-opacity:1;" d="M 95.226562 21.441406 C 97.410156 21.441406 98.503906 22.617188 98.503906 24.964844 L 98.503906 30.757812 L 97.398438 30.757812 L 97.398438 25.039062 C 97.398438 24.128906 97.210938 23.464844 96.835938 23.039062 C 96.476562 22.617188 95.902344 22.40625 95.117188 22.40625 C 94.214844 22.40625 93.484375 22.683594 92.929688 23.238281 C 92.375 23.796875 92.097656 24.546875 92.097656 25.492188 L 92.097656 30.757812 L 91.011719 30.757812 L 91.011719 24.183594 C 91.011719 23.238281 90.964844 22.398438 90.867188 21.660156 L 91.917969 21.660156 L 92.0625 23.332031 C 92.339844 22.714844 92.753906 22.246094 93.308594 21.933594 C 93.863281 21.605469 94.503906 21.441406 95.226562 21.441406 Z M 95.226562 21.441406 "/>
<path style=" stroke:none;fill-rule:nonzero;fill:rgb(29.411765%,28.627451%,40.784314%);fill-opacity:1;" d="M 103.515625 30.882812 C 102.042969 30.882812 100.878906 30.480469 100.023438 29.667969 L 100.421875 28.816406 C 100.90625 29.214844 101.386719 29.5 101.871094 29.667969 C 102.363281 29.835938 102.929688 29.921875 103.570312 29.921875 C 104.316406 29.921875 104.882812 29.796875 105.269531 29.542969 C 105.667969 29.273438 105.867188 28.894531 105.867188 28.398438 C 105.867188 27.984375 105.734375 27.664062 105.46875 27.433594 C 105.214844 27.191406 104.792969 27 104.203125 26.855469 L 102.664062 26.507812 C 101.941406 26.339844 101.367188 26.035156 100.945312 25.601562 C 100.535156 25.164062 100.332031 24.65625 100.332031 24.074219 C 100.332031 23.277344 100.632812 22.640625 101.234375 22.167969 C 101.851562 21.683594 102.664062 21.441406 103.679688 21.441406 C 104.316406 21.441406 104.910156 21.546875 105.453125 21.75 C 106.007812 21.957031 106.464844 22.253906 106.828125 22.640625 L 106.410156 23.496094 C 105.578125 22.769531 104.667969 22.40625 103.679688 22.40625 C 102.980469 22.40625 102.4375 22.542969 102.050781 22.824219 C 101.664062 23.101562 101.472656 23.488281 101.472656 23.984375 C 101.472656 24.394531 101.59375 24.730469 101.832031 24.984375 C 102.085938 25.238281 102.472656 25.425781 102.992188 25.546875 L 104.546875 25.925781 C 106.175781 26.289062 106.988281 27.09375 106.988281 28.34375 C 106.988281 29.105469 106.675781 29.722656 106.046875 30.195312 C 105.421875 30.65625 104.578125 30.882812 103.515625 30.882812 Z M 103.515625 30.882812 "/>
<path style=" stroke:none;fill-rule:nonzero;fill:rgb(29.411765%,28.627451%,40.784314%);fill-opacity:1;" d="M 115.894531 21.660156 L 115.894531 30.757812 L 114.824219 30.757812 L 114.824219 29.105469 C 114.535156 29.6875 114.125 30.128906 113.59375 30.429688 C 113.066406 30.734375 112.457031 30.882812 111.769531 30.882812 C 110.707031 30.882812 109.90625 30.589844 109.363281 29.996094 C 108.820312 29.402344 108.546875 28.523438 108.546875 27.363281 L 108.546875 21.660156 L 109.632812 21.660156 L 109.632812 27.289062 C 109.632812 28.183594 109.8125 28.84375 110.175781 29.269531 C 110.539062 29.691406 111.097656 29.902344 111.859375 29.902344 C 112.75 29.902344 113.464844 29.625 113.992188 29.070312 C 114.523438 28.5 114.789062 27.75 114.789062 26.816406 L 114.789062 21.660156 Z M 115.894531 21.660156 "/>
<path style=" stroke:none;fill-rule:nonzero;fill:rgb(29.411765%,28.627451%,40.784314%);fill-opacity:1;" d="M 121.90625 21.441406 C 122.207031 21.441406 122.472656 21.464844 122.703125 21.515625 L 122.648438 22.511719 C 122.417969 22.464844 122.140625 22.441406 121.816406 22.441406 C 120.898438 22.441406 120.210938 22.738281 119.753906 23.332031 C 119.304688 23.910156 119.082031 24.609375 119.082031 25.417969 L 119.082031 30.757812 L 117.996094 30.757812 L 117.996094 24.183594 C 117.996094 23.238281 117.949219 22.398438 117.851562 21.660156 L 118.902344 21.660156 L 119.046875 23.347656 C 119.277344 22.730469 119.644531 22.257812 120.152344 21.933594 C 120.667969 21.605469 121.253906 21.441406 121.90625 21.441406 Z M 121.90625 21.441406 "/>
<path style=" stroke:none;fill-rule:nonzero;fill:rgb(29.411765%,28.627451%,40.784314%);fill-opacity:1;" d="M 130.914062 21.660156 L 130.914062 30.757812 L 129.808594 30.757812 L 129.808594 29.015625 C 129.542969 29.621094 129.140625 30.085938 128.597656 30.414062 C 128.066406 30.726562 127.425781 30.882812 126.679688 30.882812 C 125.871094 30.882812 125.160156 30.695312 124.542969 30.320312 C 123.941406 29.933594 123.472656 29.390625 123.132812 28.6875 C 122.808594 27.972656 122.644531 27.144531 122.644531 26.199219 C 122.644531 25.253906 122.8125 24.425781 123.152344 23.710938 C 123.488281 22.984375 123.960938 22.429688 124.5625 22.042969 C 125.179688 21.640625 125.882812 21.441406 126.679688 21.441406 C 127.414062 21.441406 128.046875 21.601562 128.578125 21.914062 C 129.121094 22.230469 129.53125 22.6875 129.808594 23.292969 L 129.808594 21.660156 Z M 126.84375 29.902344 C 127.78125 29.902344 128.511719 29.578125 129.03125 28.921875 C 129.550781 28.269531 129.808594 27.351562 129.808594 26.164062 C 129.808594 24.964844 129.550781 24.039062 129.03125 23.386719 C 128.511719 22.730469 127.777344 22.40625 126.824219 22.40625 C 125.871094 22.40625 125.128906 22.742188 124.597656 23.421875 C 124.066406 24.085938 123.804688 25.011719 123.804688 26.199219 C 123.804688 27.375 124.066406 28.289062 124.597656 28.941406 C 125.128906 29.582031 125.878906 29.902344 126.84375 29.902344 Z M 126.84375 29.902344 "/>
<path style=" stroke:none;fill-rule:nonzero;fill:rgb(29.411765%,28.627451%,40.784314%);fill-opacity:1;" d="M 137.222656 21.441406 C 139.40625 21.441406 140.5 22.617188 140.5 24.964844 L 140.5 30.757812 L 139.394531 30.757812 L 139.394531 25.039062 C 139.394531 24.128906 139.207031 23.464844 138.832031 23.039062 C 138.472656 22.617188 137.898438 22.40625 137.113281 22.40625 C 136.210938 22.40625 135.480469 22.683594 134.925781 23.238281 C 134.371094 23.796875 134.09375 24.546875 134.09375 25.492188 L 134.09375 30.757812 L 133.007812 30.757812 L 133.007812 24.183594 C 133.007812 23.238281 132.960938 22.398438 132.863281 21.660156 L 133.914062 21.660156 L 134.058594 23.332031 C 134.335938 22.714844 134.75 22.246094 135.304688 21.933594 C 135.859375 21.605469 136.5 21.441406 137.222656 21.441406 Z M 137.222656 21.441406 "/>
<path style=" stroke:none;fill-rule:nonzero;fill:rgb(29.411765%,28.627451%,40.784314%);fill-opacity:1;" d="M 146.234375 30.882812 C 145.378906 30.882812 144.632812 30.691406 143.992188 30.304688 C 143.351562 29.917969 142.859375 29.371094 142.507812 28.667969 C 142.160156 27.957031 141.984375 27.132812 141.984375 26.199219 C 141.984375 25.253906 142.160156 24.425781 142.507812 23.710938 C 142.859375 22.984375 143.359375 22.429688 144.011719 22.042969 C 144.660156 21.640625 145.414062 21.441406 146.273438 21.441406 C 146.886719 21.441406 147.472656 21.550781 148.027344 21.769531 C 148.59375 21.976562 149.058594 22.265625 149.417969 22.640625 L 148.984375 23.511719 C 148.515625 23.125 148.0625 22.847656 147.628906 22.675781 C 147.207031 22.496094 146.765625 22.40625 146.308594 22.40625 C 145.332031 22.40625 144.558594 22.742188 143.992188 23.421875 C 143.425781 24.085938 143.140625 25.011719 143.140625 26.199219 C 143.140625 27.363281 143.417969 28.269531 143.972656 28.921875 C 144.539062 29.578125 145.320312 29.902344 146.308594 29.902344 C 146.765625 29.902344 147.207031 29.820312 147.628906 29.648438 C 148.0625 29.46875 148.515625 29.191406 148.984375 28.816406 L 149.417969 29.667969 C 149.035156 30.042969 148.550781 30.339844 147.972656 30.558594 C 147.40625 30.777344 146.828125 30.882812 146.234375 30.882812 Z M 146.234375 30.882812 "/>
<path style=" stroke:none;fill-rule:nonzero;fill:rgb(29.411765%,28.627451%,40.784314%);fill-opacity:1;" d="M 151.105469 26.074219 L 151.105469 26.128906 C 151.105469 27.351562 151.382812 28.289062 151.9375 28.941406 C 152.503906 29.582031 153.324219 29.902344 154.398438 29.902344 C 155.484375 29.902344 156.480469 29.527344 157.382812 28.777344 L 157.820312 29.648438 C 157.421875 30.023438 156.914062 30.328125 156.300781 30.558594 C 155.683594 30.777344 155.050781 30.882812 154.398438 30.882812 C 153.023438 30.882812 151.9375 30.46875 151.144531 29.632812 C 150.347656 28.796875 149.949219 27.644531 149.949219 26.183594 C 149.949219 25.25 150.125 24.425781 150.472656 23.710938 C 150.835938 22.984375 151.335938 22.429688 151.976562 22.042969 C 152.613281 21.640625 153.351562 21.441406 154.183594 21.441406 C 155.375 21.441406 156.304688 21.828125 156.96875 22.605469 C 157.644531 23.378906 157.980469 24.457031 157.980469 25.835938 L 157.980469 26.074219 Z M 154.183594 22.351562 C 153.351562 22.351562 152.675781 22.605469 152.15625 23.113281 C 151.636719 23.609375 151.3125 24.3125 151.179688 25.21875 L 156.933594 25.21875 C 156.859375 24.289062 156.589844 23.578125 156.117188 23.09375 C 155.648438 22.597656 155.003906 22.351562 154.183594 22.351562 Z M 154.183594 22.351562 "/>
</g>
</svg>
